<mxfile host="app.diagrams.net" agent="Mozilla/5.0 (Macintosh; Intel Mac OS X 10_15_7) AppleWebKit/537.36 (KHTML, like Gecko) Chrome/132.0.0.0 Safari/537.36" version="26.0.12">
  <diagram name="Página-1" id="KU4nOZ1SwnoxySH_bojk">
    <mxGraphModel dx="1048" dy="602" grid="0" gridSize="10" guides="1" tooltips="1" connect="1" arrows="1" fold="1" page="1" pageScale="1" pageWidth="2800" pageHeight="2800" math="0" shadow="0">
      <root>
        <mxCell id="0" />
        <mxCell id="1" parent="0" />
        <mxCell id="MFkpP6tcHmjFSUfk37jm-2" value="Região sa-east-1" style="points=[[0,0],[0.25,0],[0.5,0],[0.75,0],[1,0],[1,0.25],[1,0.5],[1,0.75],[1,1],[0.75,1],[0.5,1],[0.25,1],[0,1],[0,0.75],[0,0.5],[0,0.25]];outlineConnect=0;gradientColor=none;html=1;whiteSpace=wrap;fontSize=12;fontStyle=0;container=1;pointerEvents=0;collapsible=0;recursiveResize=0;shape=mxgraph.aws4.group;grIcon=mxgraph.aws4.group_region;strokeColor=#00A4A6;fillColor=none;verticalAlign=top;align=left;spacingLeft=30;fontColor=#147EBA;dashed=1;" vertex="1" parent="1">
          <mxGeometry x="423" y="126" width="733" height="493" as="geometry" />
        </mxCell>
        <mxCell id="MFkpP6tcHmjFSUfk37jm-1" value="&lt;font style=&quot;color: light-dark(rgb(0, 0, 0), rgb(175, 71, 255));&quot;&gt;VPC&lt;/font&gt;" style="points=[[0,0],[0.25,0],[0.5,0],[0.75,0],[1,0],[1,0.25],[1,0.5],[1,0.75],[1,1],[0.75,1],[0.5,1],[0.25,1],[0,1],[0,0.75],[0,0.5],[0,0.25]];outlineConnect=0;gradientColor=none;html=1;whiteSpace=wrap;fontSize=12;fontStyle=0;container=1;pointerEvents=0;collapsible=0;recursiveResize=0;shape=mxgraph.aws4.group;grIcon=mxgraph.aws4.group_vpc2;strokeColor=#8C4FFF;fillColor=none;verticalAlign=top;align=left;spacingLeft=30;fontColor=#AAB7B8;dashed=0;" vertex="1" parent="MFkpP6tcHmjFSUfk37jm-2">
          <mxGeometry x="35" y="60" width="666" height="378" as="geometry" />
        </mxCell>
        <mxCell id="MFkpP6tcHmjFSUfk37jm-21" value="" style="ellipse;whiteSpace=wrap;html=1;aspect=fixed;fillColor=default;strokeColor=none;" vertex="1" parent="MFkpP6tcHmjFSUfk37jm-1">
          <mxGeometry x="-22" y="172" width="43" height="43" as="geometry" />
        </mxCell>
        <mxCell id="MFkpP6tcHmjFSUfk37jm-3" value="Zona de disponibilidade 1" style="sketch=0;outlineConnect=0;gradientColor=none;html=1;whiteSpace=wrap;fontSize=12;fontStyle=0;shape=mxgraph.aws4.group;grIcon=mxgraph.aws4.group_availability_zone;strokeColor=#545B64;fillColor=none;verticalAlign=top;align=center;spacingLeft=30;fontColor=#545B64;dashed=1;" vertex="1" parent="MFkpP6tcHmjFSUfk37jm-2">
          <mxGeometry x="177" y="17" width="413" height="451" as="geometry" />
        </mxCell>
        <mxCell id="MFkpP6tcHmjFSUfk37jm-7" value="Sub-rede pública" style="points=[[0,0],[0.25,0],[0.5,0],[0.75,0],[1,0],[1,0.25],[1,0.5],[1,0.75],[1,1],[0.75,1],[0.5,1],[0.25,1],[0,1],[0,0.75],[0,0.5],[0,0.25]];outlineConnect=0;gradientColor=none;html=1;whiteSpace=wrap;fontSize=12;fontStyle=0;container=1;pointerEvents=0;collapsible=0;recursiveResize=0;shape=mxgraph.aws4.group;grIcon=mxgraph.aws4.group_security_group;grStroke=0;strokeColor=#7AA116;fillColor=#F2F6E8;verticalAlign=top;align=left;spacingLeft=30;fontColor=#248814;dashed=0;" vertex="1" parent="MFkpP6tcHmjFSUfk37jm-2">
          <mxGeometry x="185" y="112" width="390" height="145" as="geometry" />
        </mxCell>
        <mxCell id="MFkpP6tcHmjFSUfk37jm-13" value="&lt;b&gt;Front-end&lt;/b&gt;" style="sketch=0;points=[[0,0,0],[0.25,0,0],[0.5,0,0],[0.75,0,0],[1,0,0],[0,1,0],[0.25,1,0],[0.5,1,0],[0.75,1,0],[1,1,0],[0,0.25,0],[0,0.5,0],[0,0.75,0],[1,0.25,0],[1,0.5,0],[1,0.75,0]];outlineConnect=0;fontColor=#232F3E;fillColor=#ED7100;strokeColor=#ffffff;dashed=0;verticalLabelPosition=bottom;verticalAlign=top;align=center;html=1;fontSize=12;fontStyle=0;aspect=fixed;shape=mxgraph.aws4.resourceIcon;resIcon=mxgraph.aws4.ec2;" vertex="1" parent="MFkpP6tcHmjFSUfk37jm-7">
          <mxGeometry x="30" y="50" width="50" height="50" as="geometry" />
        </mxCell>
        <mxCell id="MFkpP6tcHmjFSUfk37jm-10" value="Sub-rede privada" style="points=[[0,0],[0.25,0],[0.5,0],[0.75,0],[1,0],[1,0.25],[1,0.5],[1,0.75],[1,1],[0.75,1],[0.5,1],[0.25,1],[0,1],[0,0.75],[0,0.5],[0,0.25]];outlineConnect=0;gradientColor=none;html=1;whiteSpace=wrap;fontSize=12;fontStyle=0;container=1;pointerEvents=0;collapsible=0;recursiveResize=0;shape=mxgraph.aws4.group;grIcon=mxgraph.aws4.group_security_group;grStroke=0;strokeColor=#00A4A6;fillColor=#E6F6F7;verticalAlign=top;align=left;spacingLeft=30;fontColor=#147EBA;dashed=0;" vertex="1" parent="MFkpP6tcHmjFSUfk37jm-2">
          <mxGeometry x="185" y="273" width="390" height="145" as="geometry" />
        </mxCell>
        <mxCell id="MFkpP6tcHmjFSUfk37jm-18" value="&lt;b&gt;Database&lt;/b&gt;" style="sketch=0;points=[[0,0,0],[0.25,0,0],[0.5,0,0],[0.75,0,0],[1,0,0],[0,1,0],[0.25,1,0],[0.5,1,0],[0.75,1,0],[1,1,0],[0,0.25,0],[0,0.5,0],[0,0.75,0],[1,0.25,0],[1,0.5,0],[1,0.75,0]];outlineConnect=0;fontColor=#232F3E;fillColor=#ED7100;strokeColor=#ffffff;dashed=0;verticalLabelPosition=bottom;verticalAlign=top;align=center;html=1;fontSize=12;fontStyle=0;aspect=fixed;shape=mxgraph.aws4.resourceIcon;resIcon=mxgraph.aws4.ec2;" vertex="1" parent="MFkpP6tcHmjFSUfk37jm-2">
          <mxGeometry x="478" y="162" width="50" height="50" as="geometry" />
        </mxCell>
        <mxCell id="MFkpP6tcHmjFSUfk37jm-25" style="edgeStyle=orthogonalEdgeStyle;rounded=0;orthogonalLoop=1;jettySize=auto;html=1;strokeColor=light-dark(#000000,#FF3399);strokeWidth=5;endArrow=block;endFill=1;" edge="1" parent="MFkpP6tcHmjFSUfk37jm-2" source="MFkpP6tcHmjFSUfk37jm-17" target="MFkpP6tcHmjFSUfk37jm-18">
          <mxGeometry relative="1" as="geometry" />
        </mxCell>
        <mxCell id="MFkpP6tcHmjFSUfk37jm-17" value="&lt;b&gt;Back-end&lt;/b&gt;" style="sketch=0;points=[[0,0,0],[0.25,0,0],[0.5,0,0],[0.75,0,0],[1,0,0],[0,1,0],[0.25,1,0],[0.5,1,0],[0.75,1,0],[1,1,0],[0,0.25,0],[0,0.5,0],[0,0.75,0],[1,0.25,0],[1,0.5,0],[1,0.75,0]];outlineConnect=0;fontColor=#232F3E;fillColor=#ED7100;strokeColor=#ffffff;dashed=0;verticalLabelPosition=bottom;verticalAlign=top;align=center;html=1;fontSize=12;fontStyle=0;aspect=fixed;shape=mxgraph.aws4.resourceIcon;resIcon=mxgraph.aws4.ec2;" vertex="1" parent="MFkpP6tcHmjFSUfk37jm-2">
          <mxGeometry x="355" y="162" width="50" height="50" as="geometry" />
        </mxCell>
        <mxCell id="MFkpP6tcHmjFSUfk37jm-24" style="edgeStyle=orthogonalEdgeStyle;rounded=0;orthogonalLoop=1;jettySize=auto;html=1;strokeColor=light-dark(#000000,#FF3399);strokeWidth=5;endArrow=block;endFill=1;" edge="1" parent="MFkpP6tcHmjFSUfk37jm-2" source="MFkpP6tcHmjFSUfk37jm-13" target="MFkpP6tcHmjFSUfk37jm-17">
          <mxGeometry relative="1" as="geometry" />
        </mxCell>
        <mxCell id="MFkpP6tcHmjFSUfk37jm-22" style="edgeStyle=orthogonalEdgeStyle;rounded=0;orthogonalLoop=1;jettySize=auto;html=1;strokeColor=light-dark(#000000,#FF3399);strokeWidth=5;endArrow=block;endFill=1;" edge="1" parent="1" source="MFkpP6tcHmjFSUfk37jm-20" target="MFkpP6tcHmjFSUfk37jm-19">
          <mxGeometry relative="1" as="geometry" />
        </mxCell>
        <mxCell id="MFkpP6tcHmjFSUfk37jm-20" value="&lt;b&gt;Usuário&lt;/b&gt;" style="verticalLabelPosition=bottom;html=1;verticalAlign=top;align=center;strokeColor=none;fillColor=light-dark(#00BEF2,#A680B8);shape=mxgraph.azure.user;" vertex="1" parent="1">
          <mxGeometry x="336" y="354.5" width="47.5" height="50" as="geometry" />
        </mxCell>
        <mxCell id="MFkpP6tcHmjFSUfk37jm-19" value="Internet&lt;br&gt;Gateway" style="sketch=0;outlineConnect=0;fontColor=#232F3E;gradientColor=none;fillColor=#8C4FFF;strokeColor=none;dashed=0;verticalLabelPosition=bottom;verticalAlign=top;align=center;html=1;fontSize=12;fontStyle=0;aspect=fixed;pointerEvents=1;shape=mxgraph.aws4.internet_gateway;" vertex="1" parent="1">
          <mxGeometry x="437" y="358" width="43" height="43" as="geometry" />
        </mxCell>
        <mxCell id="MFkpP6tcHmjFSUfk37jm-23" style="edgeStyle=orthogonalEdgeStyle;rounded=0;orthogonalLoop=1;jettySize=auto;html=1;entryX=0;entryY=0.5;entryDx=0;entryDy=0;entryPerimeter=0;strokeColor=light-dark(#000000,#FF3399);strokeWidth=5;endArrow=block;endFill=1;" edge="1" parent="1" source="MFkpP6tcHmjFSUfk37jm-19" target="MFkpP6tcHmjFSUfk37jm-13">
          <mxGeometry relative="1" as="geometry" />
        </mxCell>
      </root>
    </mxGraphModel>
  </diagram>
</mxfile>
